# xmcd CD database file
#
# Track frame offsets:
#	150
#	13172
#	33227
#	47802
#	61680
#	78515
#	95737
#	108687
#	121077
#	132207
#	148565
#	160797
#
# Disc length: 2308 seconds
#
# Revision: 1
# Processed by: cddbd v1.5.1PL0 Copyright (c) Steve Scherf et al.
# Submitted via: CDex 1.51
#
DISCID=9b09020c
DTITLE=David Viner - Mr. David Viner
DYEAR=2003
DGENRE=Blues
TTITLE0=Nobody's Fault
TTITLE1=Birdsnest
TTITLE2=Corrina, Corrina
TTITLE3=Ode To John Fahey
TTITLE4=Sally Jay
TTITLE5=Another Man
TTITLE6=Monkey Rag
TTITLE7=Don't Do That
TTITLE8=Hobo Blues
TTITLE9=Beer Belly
TTITLE10=Cee-Saw
TTITLE11=Trouble In Mind
EXTD=Rich Tucker a little squiffy YEAR: 2003
EXTT0=
EXTT1=
EXTT2=
EXTT3=
EXTT4=
EXTT5=
EXTT6=
EXTT7=
EXTT8=
EXTT9=
EXTT10=
EXTT11=
PLAYORDER=
